<?xml version="1.0" encoding="utf-8"?>
<svg version="1.1" width="128px" height="200px" xmlns:xlink="http://www.w3.org/1999/xlink" xmlns="http://www.w3.org/2000/svg">
  <g transform="translate(-736 -24 )">
    <path d="M 108.763005780347 18.4842883548983  C 121.587732716763 30.725056069008  128 45.1837325939618  128 61.8607516943931  C 128 76.6482563154652  121.75214982659 92.6267369069624  109.256262042389 109.796672828096  C 109.256262042389 109.796672828096  42.7899807321773 200  42.7899807321773 200  L 21.7032755298651 184.349969192853  C 21.7032755298651 184.349969192853  67.2061657032755 122.365988909427  67.2061657032755 122.365988909427  C 64.739872061657 122.694600123229  62.643553911368 122.941054836722  60.9171483622351 123.105360443623  C 59.1907428131021 123.269666050524  57.7931973795761 123.351817621688  56.7244701348747 123.351817621688  C 41.3512397687861 123.351817621688  28.0334538728324 117.477980283426  16.7707129094412 105.730129390018  C 5.59018173410405 94.0644313000616  0 80.0165126309304  0 63.5859519408503  C 0 46.087404805915  6.20674589595374 31.1358188539741  18.6204238921002 18.7307455329636  C 31.1163116763006 6.24351940850275  46.0782686705202 0  63.5067437379576 0  C 80.853009017341 0  95.9382788439306 6.16136783733824  108.763005780347 18.4842883548983  Z " fill-rule="nonzero" fill="#f3f3f3" stroke="none" transform="matrix(1 0 0 1 736 24 )" />
  </g>
</svg>