<?xml version="1.0" encoding="utf-8"?>
<svg version="1.1" width="80px" height="125px" xmlns:xlink="http://www.w3.org/1999/xlink" xmlns="http://www.w3.org/2000/svg">
  <g transform="translate(-759 -47 )">
    <path d="M 80 38.6629698089957  C 80 47.9051601971657  76.0950936416185 57.8917105668515  68.2851637764932 68.6229205175601  C 68.2851637764932 68.6229205175601  26.7437379576108 125  26.7437379576108 125  L 13.5645472061657 115.218730745533  C 13.5645472061657 115.218730745533  42.0038535645472 76.4787430683919  42.0038535645472 76.4787430683919  C 40.4624200385356 76.6841250770179  39.152221194605 76.8381592729513  38.0732177263969 76.9408502772643  C 36.9942142581888 77.0435412815773  36.1207483622351 77.0948860135551  35.4527938342967 77.0948860135551  C 25.8445248554913 77.0948860135551  17.5209086705202 73.4237376771411  10.4816955684008 66.0813308687616  C 3.49386358381502 58.7902695625385  0 50.0103203943315  0 39.7412199630314  C 0 28.8046280036969  3.87921618497109 19.4598867837338  11.6377649325626 11.7067159581023  C 19.4476947976878 3.90219963031424  28.7989179190751 0  39.6917148362235 0  C 50.5331306358382 0  59.9614242774566 3.85085489833641  67.9768786127168 11.5526802218115  C 75.9923329479769 19.20316004313  80 28.2398328712261  80 38.6629698089957  Z M 39.9225729600953 16.0984848484848  C 33.7283787969029 16.0984848484848  28.4375839785587 18.2884204577885  24.0500297796307 22.6683573751211  C 19.6108572960095 27.0998229620693  17.3913043478261 32.3299044760533  17.3913043478261 38.3587588210876  C 17.3913043478261 44.7998425230473  19.5850485407981 50.2102716754445  23.972602739726 54.5902085927771  C 28.4117752233472 59.0216741797253  33.7541875521143 61.2373737373737  40 61.2373737373737  C 46.2458124478857 61.2373737373737  51.5624160214413 59.0474381280701  55.9499702203692 54.6675012107375  C 60.3891427039905 50.2360356237893  62.6086956521739 44.9028983164262  62.6086956521739 38.6679292929293  C 62.6086956521739 32.4329602694323  60.3891427039905 27.0998229620693  55.9499702203692 22.6683573751211  C 51.5624160214413 18.2884204577885  46.2200036926742 16.0984848484848  39.9225729600953 16.0984848484848  Z " fill-rule="nonzero" fill="#54c0be" stroke="none" transform="matrix(1 0 0 1 759 47 )" />
  </g>
</svg>