<?xml version="1.0" encoding="utf-8"?>
<svg version="1.1" width="159px" height="40px" xmlns:xlink="http://www.w3.org/1999/xlink" xmlns="http://www.w3.org/2000/svg">
  <defs>
    <filter x="-50%" y="-50%" width="200%" height="200%" filterUnits="objectBoundingBox" id="filter133">
      <feOffset dx="0" dy="2" in="SourceAlpha" result="shadowOffsetInner" />
      <feGaussianBlur stdDeviation="1" in="shadowOffsetInner" result="shadowGaussian" />
      <feComposite in2="shadowGaussian" operator="atop" in="SourceAlpha" result="shadowComposite" />
      <feColorMatrix type="matrix" values="0 0 0 0 0  0 0 0 0 0  0 0 0 0 0  0 0 0 0.349019607843137 0  " in="shadowComposite" />
    </filter>
    <g id="widget134">
      <path d="M 291 2731  A 3 3 0 0 1 294 2728L 441 2728  A 3 3 0 0 1 444 2731L 444 2759  A 3 3 0 0 1 441 2762L 294 2762  A 3 3 0 0 1 291 2759L 291 2731  Z " fill-rule="nonzero" fill="#6200ee" stroke="none" fill-opacity="0" />
      <path d="M 290.5 2731  A 3.5 3.5 0 0 1 294 2727.5L 441 2727.5  A 3.5 3.5 0 0 1 444.5 2731L 444.5 2759  A 3.5 3.5 0 0 1 441 2762.5L 294 2762.5  A 3.5 3.5 0 0 1 290.5 2759L 290.5 2731  Z " stroke-width="1" stroke="#000000" fill="none" stroke-opacity="0.117647058823529" />
    </g>
  </defs>
  <g transform="translate(-288 -2727 )">
    <use xlink:href="#widget134" filter="url(#filter133)" />
    <use xlink:href="#widget134" />
  </g>
</svg>