<?xml version="1.0" encoding="utf-8"?>
<svg version="1.1" width="344px" height="185px" xmlns:xlink="http://www.w3.org/1999/xlink" xmlns="http://www.w3.org/2000/svg">
  <g transform="translate(-416 -3473 )">
    <path d="M 417 3477  A 3 3 0 0 1 420 3474L 756 3474  A 3 3 0 0 1 759 3477L 759 3654  A 3 3 0 0 1 756 3657L 420 3657  A 3 3 0 0 1 417 3654L 417 3477  Z " fill-rule="nonzero" fill="#ffffff" stroke="none" />
    <path d="M 416.5 3477  A 3.5 3.5 0 0 1 420 3473.5L 756 3473.5  A 3.5 3.5 0 0 1 759.5 3477L 759.5 3654  A 3.5 3.5 0 0 1 756 3657.5L 420 3657.5  A 3.5 3.5 0 0 1 416.5 3654L 416.5 3477  Z " stroke-width="1" stroke="#000000" fill="none" stroke-opacity="0.117647058823529" />
  </g>
</svg>