<?xml version="1.0" encoding="utf-8"?>
<svg version="1.1" width="124px" height="32px" xmlns:xlink="http://www.w3.org/1999/xlink" xmlns="http://www.w3.org/2000/svg">
  <g transform="translate(-160 -3869 )">
    <path d="M 161 3885  A 15 15 0 0 1 176 3870L 268 3870  A 15 15 0 0 1 283 3885A 15 15 0 0 1 268 3900L 176 3900  A 15 15 0 0 1 161 3885Z " fill-rule="nonzero" fill="#ffffff" stroke="none" fill-opacity="0.117647058823529" />
    <path d="M 160.5 3885  A 15.5 15.5 0 0 1 176 3869.5L 268 3869.5  A 15.5 15.5 0 0 1 283.5 3885A 15.5 15.5 0 0 1 268 3900.5L 176 3900.5  A 15.5 15.5 0 0 1 160.5 3885Z " stroke-width="1" stroke="#000000" fill="none" stroke-opacity="0.117647058823529" />
  </g>
</svg>