<?xml version="1.0" encoding="utf-8"?>
<svg version="1.1" width="356px" height="60px" xmlns:xlink="http://www.w3.org/1999/xlink" xmlns="http://www.w3.org/2000/svg">
  <defs>
    <filter x="-50%" y="-50%" width="200%" height="200%" filterUnits="objectBoundingBox" id="filter69">
      <feOffset dx="0" dy="6" in="SourceAlpha" result="shadowOffsetInner" />
      <feGaussianBlur stdDeviation="3" in="shadowOffsetInner" result="shadowGaussian" />
      <feComposite in2="shadowGaussian" operator="atop" in="SourceAlpha" result="shadowComposite" />
      <feColorMatrix type="matrix" values="0 0 0 0 0  0 0 0 0 0  0 0 0 0 0  0 0 0 0.317647058823529 0  " in="shadowComposite" />
    </filter>
    <g id="widget70">
      <path d="M 48.5 13770  A 3.5 3.5 0 0 1 52 13766.5L 388 13766.5  A 3.5 3.5 0 0 1 391.5 13770L 391.5 13810  A 3.5 3.5 0 0 1 388 13813.5L 52 13813.5  A 3.5 3.5 0 0 1 48.5 13810L 48.5 13770  Z " fill-rule="nonzero" fill="#000000" stroke="none" fill-opacity="0.866666666666667" />
      <path d="M 48.5 13770  A 3.5 3.5 0 0 1 52 13766.5L 388 13766.5  A 3.5 3.5 0 0 1 391.5 13770L 391.5 13810  A 3.5 3.5 0 0 1 388 13813.5L 52 13813.5  A 3.5 3.5 0 0 1 48.5 13810L 48.5 13770  Z " stroke-width="1" stroke="#797979" fill="none" />
    </g>
  </defs>
  <g transform="translate(-42 -13766 )">
    <use xlink:href="#widget70" filter="url(#filter69)" />
    <use xlink:href="#widget70" />
  </g>
</svg>