<?xml version="1.0" encoding="utf-8"?>
<svg version="1.1" width="356px" height="80px" xmlns:xlink="http://www.w3.org/1999/xlink" xmlns="http://www.w3.org/2000/svg">
  <defs>
    <filter x="-50%" y="-50%" width="200%" height="200%" filterUnits="objectBoundingBox" id="filter73">
      <feOffset dx="0" dy="6" in="SourceAlpha" result="shadowOffsetInner" />
      <feGaussianBlur stdDeviation="3" in="shadowOffsetInner" result="shadowGaussian" />
      <feComposite in2="shadowGaussian" operator="atop" in="SourceAlpha" result="shadowComposite" />
      <feColorMatrix type="matrix" values="0 0 0 0 0  0 0 0 0 0  0 0 0 0 0  0 0 0 0.317647058823529 0  " in="shadowComposite" />
    </filter>
    <g id="widget74">
      <path d="M 48.5 13842  A 3.5 3.5 0 0 1 52 13838.5L 388 13838.5  A 3.5 3.5 0 0 1 391.5 13842L 391.5 13902  A 3.5 3.5 0 0 1 388 13905.5L 52 13905.5  A 3.5 3.5 0 0 1 48.5 13902L 48.5 13842  Z " fill-rule="nonzero" fill="#000000" stroke="none" fill-opacity="0.866666666666667" />
      <path d="M 48.5 13842  A 3.5 3.5 0 0 1 52 13838.5L 388 13838.5  A 3.5 3.5 0 0 1 391.5 13842L 391.5 13902  A 3.5 3.5 0 0 1 388 13905.5L 52 13905.5  A 3.5 3.5 0 0 1 48.5 13902L 48.5 13842  Z " stroke-width="1" stroke="#797979" fill="none" />
    </g>
  </defs>
  <g transform="translate(-42 -13838 )">
    <use xlink:href="#widget74" filter="url(#filter73)" />
    <use xlink:href="#widget74" />
  </g>
</svg>