<?xml version="1.0" encoding="utf-8"?>
<svg version="1.1" width="356px" height="128px" xmlns:xlink="http://www.w3.org/1999/xlink" xmlns="http://www.w3.org/2000/svg">
  <defs>
    <filter x="-50%" y="-50%" width="200%" height="200%" filterUnits="objectBoundingBox" id="filter153">
      <feOffset dx="0" dy="6" in="SourceAlpha" result="shadowOffsetInner" />
      <feGaussianBlur stdDeviation="3" in="shadowOffsetInner" result="shadowGaussian" />
      <feComposite in2="shadowGaussian" operator="atop" in="SourceAlpha" result="shadowComposite" />
      <feColorMatrix type="matrix" values="0 0 0 0 0  0 0 0 0 0  0 0 0 0 0  0 0 0 0.317647058823529 0  " in="shadowComposite" />
    </filter>
    <g id="widget154">
      <path d="M 416.5 13842  A 3.5 3.5 0 0 1 420 13838.5L 756 13838.5  A 3.5 3.5 0 0 1 759.5 13842L 759.5 13950  A 3.5 3.5 0 0 1 756 13953.5L 420 13953.5  A 3.5 3.5 0 0 1 416.5 13950L 416.5 13842  Z " fill-rule="nonzero" fill="#000000" stroke="none" fill-opacity="0.866666666666667" />
      <path d="M 416.5 13842  A 3.5 3.5 0 0 1 420 13838.5L 756 13838.5  A 3.5 3.5 0 0 1 759.5 13842L 759.5 13950  A 3.5 3.5 0 0 1 756 13953.5L 420 13953.5  A 3.5 3.5 0 0 1 416.5 13950L 416.5 13842  Z " stroke-width="1" stroke="#797979" fill="none" />
    </g>
  </defs>
  <g transform="translate(-410 -13838 )">
    <use xlink:href="#widget154" filter="url(#filter153)" />
    <use xlink:href="#widget154" />
  </g>
</svg>