<?xml version="1.0" encoding="utf-8"?>
<svg version="1.1" width="280px" height="56px" xmlns:xlink="http://www.w3.org/1999/xlink" xmlns="http://www.w3.org/2000/svg">
  <g transform="translate(-376 -14338 )">
    <path d="M 377 14342  A 3 3 0 0 1 380 14339L 652 14339  A 3 3 0 0 1 655 14342L 655 14390  A 3 3 0 0 1 652 14393L 380 14393  A 3 3 0 0 1 377 14390L 377 14342  Z " fill-rule="nonzero" fill="#ffffff" stroke="none" fill-opacity="0.0980392156862745" />
    <path d="M 376.5 14342  A 3.5 3.5 0 0 1 380 14338.5L 652 14338.5  A 3.5 3.5 0 0 1 655.5 14342L 655.5 14390  A 3.5 3.5 0 0 1 652 14393.5L 380 14393.5  A 3.5 3.5 0 0 1 376.5 14390L 376.5 14342  Z " stroke-width="1" stroke="#000000" fill="none" stroke-opacity="0.376470588235294" />
  </g>
</svg>