<svg xmlns="http://www.w3.org/2000/svg" width="20" height="20" viewBox="0 0 20 20">
    <g fill="none" fill-rule="evenodd">
        <rect width="18" height="18" x="1" y="1" stroke="#E1E0E0" stroke-width="2" rx="4"/>
        <rect width="19" height="19" x=".5" y=".5" stroke="#979797" rx="4"/>
        <path fill="#666" d="M9 5V4L4.448 6.5v1L9 9.5v-1C6.733 7.513 5.567 7.013 5.5 7c.069-.017 1.235-.683 3.5-2zM5.292 14.262a.675.675 0 0 1 .195-.477.676.676 0 0 1 .225-.147.753.753 0 0 1 .288-.054c.12 0 .227.022.321.066a.641.641 0 0 1 .234.183.827.827 0 0 1 .141.27c.032.102.048.213.048.333 0 .18-.026.367-.078.561a2.996 2.996 0 0 1-.222.576 3.439 3.439 0 0 1-.84 1.053l-.18-.174a.222.222 0 0 1-.078-.168c0-.052.028-.106.084-.162.04-.044.091-.103.153-.177s.125-.159.189-.255.123-.202.177-.318c.054-.116.093-.24.117-.372h-.078a.709.709 0 0 1-.282-.054.647.647 0 0 1-.219-.153.698.698 0 0 1-.144-.234.834.834 0 0 1-.051-.297z"/>
    </g>
</svg>
