<svg xmlns="http://www.w3.org/2000/svg" width="16" height="16" viewBox="0 0 16 16">
    <path fill="#6D6D6D" fill-rule="evenodd" d="M14 2.5l-2 1V2H2v12h12v1a1 1 0 0 1-1 1H1a1 1 0 0 1-1-1V1a1 1 0 0 1 1-1h12a1 1 0 0 1 1 1v1.5zm-2.981 3.702c.78-1.06 1.407-1.803 1.882-2.23.475-.428.938-.641 1.389-.641.54 0 .913.184 1.118.553.11.192.164.424.164.698 0 .28-.113.536-.339.769a1.1 1.1 0 0 1-.82.348c-.198 0-.422-.075-.672-.225-.25-.15-.439-.226-.569-.226-.253 0-.494.13-.723.39-.229.26-.623.81-1.184 1.65l.195 1.026c.102.526.188.959.256 1.297.069.338.144.651.226.938.11.397.219.684.328.862.11.177.27.266.482.266.191 0 .424-.14.697-.42.15-.15.38-.427.687-.83l.43.297a8.113 8.113 0 0 1-1.409 1.733c-.578.546-1.143.82-1.697.82-.465 0-.848-.192-1.148-.574-.171-.205-.322-.486-.452-.841a11.32 11.32 0 0 1-.282-.98 24.82 24.82 0 0 0-.23-.866l-.144.246c-.677 1.162-1.172 1.918-1.487 2.266-.471.52-1.018.78-1.64.78-.356 0-.665-.122-.928-.364a1.172 1.172 0 0 1-.395-.898c0-.294.097-.565.292-.815.195-.25.467-.374.815-.374.212 0 .474.075.785.226.31.15.514.225.61.225.212 0 .395-.094.548-.282.154-.188.457-.654.908-1.4l.41-.676c-.068-.287-.142-.64-.22-1.056-.079-.417-.16-.845-.241-1.282l-.164-.872c-.117-.629-.301-1.042-.554-1.24-.144-.117-.38-.175-.708-.175a14.992 14.992 0 0 0-.636.051v-.564c.616-.075 1.29-.17 2.026-.287a52.738 52.738 0 0 0 1.471-.246c.205.274.374.605.508.995.133.39.234.803.302 1.24l.113.688z"/>
</svg>
