<?xml version="1.0" encoding="UTF-8"?>
<svg width="52px" height="12px" viewBox="0 0 52 12" version="1.1" xmlns="http://www.w3.org/2000/svg" xmlns:xlink="http://www.w3.org/1999/xlink">
    <!-- Generator: Sketch 50.2 (55047) - http://www.bohemiancoding.com/sketch -->
    <title>axure_logo</title>
    <desc>Created with Sketch.</desc>
    <defs></defs>
    <g id="Symbols" stroke="none" stroke-width="1" fill="none" fill-rule="evenodd">
        <g id="updated_header-copy" transform="translate(-1371.000000, -12.000000)" fill="#3D4557">
            <g id="axure_logo" transform="translate(1371.000000, 12.000000)">
                <path d="M23.6337569,0.211361346 L19.4142734,6.12413879 C20.5929844,7.76544547 22.4073623,10.3236224 23.4927644,11.7946181 L20.5223167,11.7946181 L17.9762186,8.20017753 C17.1271762,9.43098196 16.2788199,10.5887458 15.4297775,11.7946181 L12.5066702,11.7946181 L16.5141504,6.12413879 C15.1944469,4.24193858 13.6623971,2.1427235 12.3420075,0.211361346 L15.2884419,0.211361346 L17.9762186,4.04915352 L20.6633092,0.211361346 L23.6337569,0.211361346 Z" id="Fill-5-Copy-124"></path>
                <path d="M11.6136895,6.03116989 L11.6136895,11.8575336 L9.24336066,11.8575336 L9.24336066,10.4558287 C8.49296706,11.4226674 7.06182513,12.0035446 5.7952372,12.0035446 C2.6052109,12.0035446 0,9.31940634 0,6.03116989 C0,2.74293344 2.6052109,0.0591470426 5.7952372,0.0591470426 C7.06182513,0.0591470426 8.49296706,0.638265082 9.24336066,1.60580737 L9.24336066,0.228027151 L11.6136895,0.228027151 L11.6136895,6.03116989 L11.6136895,6.03116989 Z M5.7952372,9.56146783 C7.69648468,9.56146783 9.24336066,7.98841998 9.24336066,6.03116989 C9.24336066,4.07216063 7.69648468,2.50052012 5.7952372,2.50052012 C3.89467252,2.50052012 2.34745514,4.07216063 2.34745514,6.03116989 C2.34745514,7.98841998 3.89467252,9.56146783 5.7952372,9.56146783 L5.7952372,9.56146783 Z" id="Fill-1-Copy-126"></path>
                <path d="M33.9017123,11.8397627 L31.548487,11.8397627 L31.548487,10.8706411 C31.0307226,11.6705454 29.8537675,12.0086274 29.006579,12.0086274 C25.8999928,12.0086274 24.0885024,9.73230222 24.0885024,6.9218849 L24.0885024,0.211361346 L26.4413853,0.211361346 L26.4413853,6.9218849 C26.4413853,8.39971598 27.5477984,9.56237985 29.006579,9.56237985 C30.39516,9.56237985 31.4776026,8.4233359 31.548487,6.99485986 L31.548487,0.211361346 L33.9017123,0.211361346 L33.9017123,11.8397627" id="Fill-2-Copy-128"></path>
                <path d="M37.4691032,5.23094818 L37.4691032,11.7946181 L35.1006626,11.7946181 L35.1006626,0.211361346 L37.4691032,0.211361346 L37.4691032,1.27329157 C37.8195915,0.596591985 39.2986725,0.211361346 40.307478,0.211361346 L40.7524991,0.211361346 L40.7524991,2.67269366 L40.307478,2.67269366 C39.2747833,2.67269366 37.4691032,3.1548465 37.4691032,5.23094818" id="Fill-3-Copy-125"></path>
                <path d="M50.9313232,9.28841829 C49.5903307,11.130254 47.7551081,11.8564131 46.1557058,11.8564131 C43.004476,11.8564131 40.4405722,9.21685989 40.4405722,5.9706465 C40.4405722,2.6997578 43.004476,0.0591470426 46.1557058,0.0591470426 C49.8254664,0.0591470426 52.6002052,3.64482221 51.7777435,7.32743609 L42.9805175,7.32743609 C43.404241,8.63452255 44.8150555,9.60390976 46.1557058,9.60390976 C47.1670976,9.60390976 47.7082178,9.26480049 48.3208714,8.73181378 L50.9313232,9.28841829 L50.9313232,9.28841829 Z M42.910011,4.97693648 L49.3794957,4.97693648 C48.9554299,3.57220629 47.6616699,2.48155755 46.1557058,2.48155755 C44.6976588,2.48155755 43.3806247,3.6201469 42.910011,4.97693648 L42.910011,4.97693648 Z" id="Fill-4-Copy-124"></path>
            </g>
        </g>
    </g>
</svg>