<svg height="14" viewBox="0 0 50 14" width="50" xmlns="http://www.w3.org/2000/svg"><g fill="none" fill-rule="evenodd"><g fill="#3f4040"><path d="m6.7827 7.0792v2.741c-.866.119-2.101.146-2.521.146-1.998 0-2.09-.542-2.09-1.581 0-1.013.345-1.306 1.541-1.306zm-2.619-6.916c-.624 0-1.476.017-2.547.147l-.056.012c-.367.105-.561.358-.561.731v.432c0 .445.287.732.733.732h2.431c1.885 0 2.619.476 2.619 1.698v1.13h-3.07c-2.568 0-3.713 1.03-3.713 3.34 0 2.568 1.184 3.615 4.085 3.615 1.159 0 3.295-.091 4.09-.334.504-.14.76-.472.76-.987v-6.881c0-2.446-1.561-3.635-4.771-3.635z" transform="translate(0 .8362)"/><path d="m8.6973.3014h-.686c-.425 0-.733.308-.733.732v8.913h-2.717c-1.659 0-2.345 0-2.345-2.796v-6.117c0-.424-.309-.732-.733-.732h-.667c-.429 0-.752.315-.752.732v6.117c0 4.1 1.56 4.85 4.633 4.85 1.101 0 2.608 0 4.057-.205l.039-.008c.526-.132.636-.473.636-.736v-10.018c0-.424-.308-.732-.732-.732" transform="translate(22 .8362)"/><path d="m5.2529.3297-.062-.017c-.411-.086-1.525-.149-2.076-.149-2.549 0-3.085 1.348-3.085 2.478v8.527c0 .425.308.733.733.733h.686c.425 0 .733-.308.733-.733v-8.371c0-.272 0-.58 1.11-.58l1.688-.003c.206.026.402-.032.553-.161.165-.14.256-.342.256-.569v-.431c0-.341-.201-.611-.536-.724" transform="translate(34 .8362)"/><path d="m5.4444.1637c-2.024 0-3.174.399-3.843 1.335-.691.966-.83 2.466-.83 4.574 0 4.099.675 5.927 4.673 5.927.472 0 2.083-.009 3.032-.125.443-.073.641-.417.641-.725v-.451c0-.429-.323-.752-.752-.752h-2.921c-2.113 0-2.466-.47-2.521-3.345v-.958c.018-2.946.372-3.426 2.521-3.426 1.957 0 2.317.406 2.393 2.867h-3.282v2.073h4.457c.451 0 .988-.161.988-.929v-.576c-.063-4.207-1.127-5.489-4.556-5.489" transform="translate(40 .8362)"/></g><path d="m19.9341 1.496c-.111-.237-.346-.378-.629-.378h-.882c-.305 0-.543.128-.661.349l-1.362 1.994 1.314 1.802 2.101-3.022c.269-.328.173-.63.119-.745" fill="#74bb11"/><path d="m13.0293 1.4428-.003-.004c-.159-.213-.382-.321-.661-.321h-.862c-.274 0-.498.128-.618.351-.121.227-.098.498.068.746l3.139 4.361-3.621 5.062c-.157.237-.178.503-.056.73.119.223.344.351.617.351h.882c.274 0 .522-.144.636-.36l4.172-5.762z" fill="#009cd9"/><path d="m20.3711 11.6977-2.687-3.699-1.296 1.793 2.109 2.822.086.038c.105.045.206.067.31.067h.863c.257 0 .476-.117.601-.32.128-.207.134-.462.014-.701" fill="#eb2084"/></g></svg>