<svg xmlns="http://www.w3.org/2000/svg" width="18" height="19" viewBox="0 0 18 19">
    <g fill="#FFF" fill-rule="nonzero">
        <path d="M16.305 18.94H6.547a.714.714 0 0 1-.717-.712v-3.344c0-.393.321-.712.717-.712.395 0 .716.319.716.712v2.632h8.325V1.484H7.263v2.632c0 .393-.32.712-.716.712a.714.714 0 0 1-.717-.712V.772c0-.394.321-.713.717-.713h9.758c.395 0 .716.32.716.713v17.456c0 .394-.32.713-.716.713z"/>
        <path d="M.363 9.01l3.29-3.476a.719.719 0 0 1 1.217.277.71.71 0 0 1-.174.699L2.548 8.787h9.072c.396 0 .717.32.717.713 0 .394-.321.713-.717.713H2.548l2.148 2.277a.71.71 0 0 1-.353 1.192.719.719 0 0 1-.69-.216L.363 9.99a.71.71 0 0 1 0-.978z"/>
    </g>
</svg>
