<svg xmlns="http://www.w3.org/2000/svg" width="23" height="20" viewBox="0 0 23 20">
    <g fill="#FFF" fill-rule="nonzero">
        <path d="M16.097 3.636H14.73v1.48h1.367c2.797 0 5.065 2.32 5.065 5.183 0 2.861-2.268 5.181-5.065 5.181h-3.041l1.647-2a.753.753 0 0 0-.087-1.045.713.713 0 0 0-1.02.09l-2.573 3.13a.753.753 0 0 0 0 .955l2.573 3.127a.715.715 0 0 0 1.234-.226.754.754 0 0 0-.127-.73l-1.5-1.82h2.894c3.596 0 6.512-2.983 6.512-6.662 0-3.68-2.916-6.663-6.512-6.663zM0 9.739c0 3.658 2.867 6.625 6.403 6.625h1.345V14.89H6.403c-2.75 0-4.98-2.307-4.98-5.152 0-2.846 2.23-5.153 4.98-5.153h2.66L7.512 6.487a.754.754 0 0 0 .085 1.038c.3.262.75.223 1.003-.088l2.538-3.114a.756.756 0 0 0 0-.95L8.607.266A.702.702 0 0 0 7.934.01a.722.722 0 0 0-.548.475.76.76 0 0 0 .124.728l1.546 1.902H6.403C2.868 3.116.001 6.08 0 9.739z"/>
    </g>
</svg>
